<svg width="1920" height="1024" viewBox="0 0 1920 1024" fill="none" xmlns="http://www.w3.org/2000/svg">
<path fill-rule="evenodd" clip-rule="evenodd" d="M1560 129.447C1674.27 102.521 1795.1 68.3947 1925.99 27.0604C1925.99 27.0604 2722.52 -333.971 1925.99 -153.455C1129.45 27.0605 817.938 27.0605 5.90414 -153.455C-806.13 -333.971 5.90414 27.0602 5.90414 27.0602C132.219 67.1012 249.193 100.391 360 126.922V142V875V890.078C249.193 916.609 132.219 949.899 5.90414 989.939C5.90414 989.939 -806.13 1350.97 5.90411 1170.46C817.938 989.939 1129.45 989.939 1925.99 1170.46C2722.52 1350.97 1925.99 989.94 1925.99 989.94C1795.1 948.605 1674.27 914.479 1560 887.553V129.447ZM920 812.463L920 204.537V142H425.634L400 142V875H425.633C425.633 875 425.633 875 425.634 875L920 875L920 812.463Z" fill="black"/>
</svg>
